<svg width="86" height="28" viewBox="0 0 86 28" fill="none" xmlns="http://www.w3.org/2000/svg">
<path d="M15.5151 10.2637C15.5151 9.95931 15.499 9.69613 15.4668 9.47412C15.4346 9.24854 15.3898 9.07487 15.3325 8.95312H13.356V14.6089C13.356 14.7593 13.3613 14.8882 13.3721 14.9956C13.3864 15.0994 13.4079 15.1925 13.4365 15.2749C13.5153 15.2964 13.5994 15.3107 13.689 15.3179C13.7821 15.3215 13.8823 15.3232 13.9897 15.3232H14.4731V16.0752C14.1938 16.0394 13.9307 16.0179 13.6836 16.0107C13.4365 16.0036 13.1948 16 12.9585 16C12.6291 16 12.3122 16.0036 12.0078 16.0107C11.7035 16.0179 11.3901 16.0394 11.0679 16.0752V15.3232H11.5459C11.6533 15.3232 11.7536 15.3215 11.8467 15.3179C11.9398 15.3143 12.0239 15.3 12.0991 15.2749C12.1528 15.1353 12.1797 14.9419 12.1797 14.6948V8.95312H10.2031C10.1458 9.07487 10.1011 9.24854 10.0688 9.47412C10.0366 9.69613 10.0205 9.95931 10.0205 10.2637H9.2793C9.2793 10.1419 9.27572 10.0023 9.26855 9.84473C9.26497 9.68359 9.25781 9.51888 9.24707 9.35059C9.23991 9.17871 9.23275 9.00863 9.22559 8.84033C9.22201 8.66846 9.22021 8.50911 9.22021 8.3623C9.29899 8.32292 9.44938 8.29964 9.67139 8.29248C9.89697 8.28532 10.1691 8.28174 10.4878 8.28174C10.5272 8.28174 10.6042 8.28353 10.7188 8.28711C10.8369 8.28711 10.973 8.2889 11.127 8.29248C11.2845 8.29606 11.4528 8.29964 11.6318 8.30322C11.8109 8.30322 11.9792 8.30501 12.1367 8.30859C12.2979 8.31217 12.4393 8.31576 12.561 8.31934C12.6864 8.31934 12.7741 8.31934 12.8242 8.31934C12.9173 8.31934 13.0337 8.31934 13.1733 8.31934C13.313 8.31576 13.4598 8.31217 13.6138 8.30859C13.7677 8.30501 13.9217 8.30322 14.0757 8.30322C14.2332 8.29964 14.3747 8.29606 14.5 8.29248C14.6289 8.2889 14.7345 8.28711 14.8169 8.28711C14.8993 8.28353 14.9458 8.28174 14.9565 8.28174C15.2824 8.28174 15.5581 8.28711 15.7837 8.29785C16.0093 8.30501 16.1615 8.3265 16.2402 8.3623C16.2402 8.50911 16.2367 8.66846 16.2295 8.84033C16.2259 9.00863 16.2205 9.17871 16.2134 9.35059C16.2062 9.51888 16.1991 9.68359 16.1919 9.84473C16.1883 10.0023 16.1865 10.1419 16.1865 10.2637H15.5151ZM18.9526 11.7515C19.0851 11.5402 19.2158 11.3451 19.3447 11.166C19.4736 10.987 19.6115 10.833 19.7583 10.7041C19.9087 10.5752 20.0734 10.4749 20.2524 10.4033C20.4315 10.3317 20.6374 10.2959 20.8701 10.2959C21.0921 10.2959 21.2604 10.3138 21.375 10.3496C21.4896 10.3854 21.5773 10.4212 21.6382 10.457L21.5039 11.9395H21.0205L20.8916 11.1553C20.7949 11.1445 20.7197 11.1356 20.666 11.1284C20.6123 11.1213 20.5658 11.1177 20.5264 11.1177C20.3581 11.1177 20.1826 11.1696 20 11.2734C19.821 11.3737 19.6562 11.5098 19.5059 11.6816C19.3555 11.8499 19.2319 12.0451 19.1353 12.2671C19.0386 12.4855 18.9902 12.7129 18.9902 12.9492V14.7593C18.9902 14.9097 18.9938 15.035 19.001 15.1353C19.0081 15.2319 19.0314 15.3125 19.0708 15.377C19.1138 15.4414 19.1782 15.4915 19.2642 15.5273C19.3537 15.5632 19.479 15.5936 19.6401 15.6187L19.6885 16.0698C19.4307 16.0483 19.1961 16.0304 18.9849 16.0161C18.7736 16.0054 18.5659 16 18.3618 16C18.1685 16 17.9733 16.0054 17.7764 16.0161C17.583 16.0269 17.3771 16.0448 17.1587 16.0698L17.1802 15.6187C17.3485 15.5972 17.4774 15.5721 17.5669 15.5435C17.66 15.5148 17.7262 15.4736 17.7656 15.4199C17.8086 15.3662 17.8337 15.2982 17.8408 15.2158C17.848 15.1335 17.8516 15.0278 17.8516 14.8989V11.4238C17.8516 11.3594 17.848 11.2967 17.8408 11.2358C17.8372 11.1714 17.8265 11.1105 17.8086 11.0532C17.7585 11.0282 17.7048 11.0085 17.6475 10.9941C17.5902 10.9798 17.5203 10.9727 17.438 10.9727H16.8311V10.457C16.874 10.4463 16.9385 10.4355 17.0244 10.4248C17.1104 10.4105 17.2088 10.3979 17.3198 10.3872C17.4344 10.3765 17.5562 10.3675 17.6851 10.3604C17.8175 10.3532 17.9518 10.3496 18.0879 10.3496C18.2598 10.3496 18.4209 10.3586 18.5713 10.3765C18.7253 10.3908 18.8524 10.4176 18.9526 10.457V11.7515ZM27.8633 14.5552C27.8633 14.7593 27.8722 14.9347 27.8901 15.0815C27.908 15.2248 27.9295 15.3501 27.9546 15.4575H28.8193V15.9194C28.6331 15.966 28.4219 16.0018 28.1855 16.0269C27.9528 16.0555 27.6914 16.0698 27.4014 16.0698C27.2653 16.0698 27.1471 16.0645 27.0469 16.0537C26.9502 16.0465 26.8714 16.0269 26.8105 15.9946C26.7497 15.9588 26.7049 15.9069 26.6763 15.8389C26.6476 15.7708 26.6333 15.6795 26.6333 15.5649V15.3823L26.5527 15.4414C26.4417 15.5238 26.3254 15.6061 26.2036 15.6885C26.0819 15.7673 25.9422 15.8407 25.7847 15.9087C25.6307 15.9731 25.4552 16.0251 25.2583 16.0645C25.0614 16.1074 24.834 16.1289 24.5762 16.1289C24.0319 16.1289 23.6344 15.9821 23.3838 15.6885C23.1331 15.3949 23.0078 14.9634 23.0078 14.394V11.5474C23.0078 11.4435 23.0024 11.3504 22.9917 11.2681C22.981 11.1821 22.9666 11.1034 22.9487 11.0317C22.8843 11.0103 22.8145 10.9959 22.7393 10.9888C22.6641 10.978 22.5853 10.9727 22.5029 10.9727H22.0571V10.457C22.1037 10.4463 22.1735 10.4355 22.2666 10.4248C22.3597 10.4105 22.4671 10.3979 22.5889 10.3872C22.7142 10.3765 22.8485 10.3675 22.9917 10.3604C23.1385 10.3532 23.2871 10.3496 23.4375 10.3496C23.5736 10.3496 23.7043 10.3586 23.8296 10.3765C23.9549 10.3908 24.0605 10.4176 24.1465 10.457V14.1094C24.1465 14.2956 24.1519 14.471 24.1626 14.6357C24.1769 14.7969 24.2145 14.9383 24.2754 15.0601C24.3363 15.1818 24.4312 15.2785 24.5601 15.3501C24.6925 15.4217 24.877 15.4575 25.1133 15.4575C25.2923 15.4575 25.4714 15.4307 25.6504 15.377C25.8294 15.3197 25.9906 15.2588 26.1338 15.1943C26.2806 15.1263 26.3988 15.0636 26.4883 15.0063C26.5814 14.9455 26.6297 14.9097 26.6333 14.8989C26.6727 14.659 26.6978 14.3887 26.7085 14.0879C26.7192 13.7871 26.7246 13.4738 26.7246 13.1479V11.5474C26.7246 11.3433 26.7031 11.1714 26.6602 11.0317C26.5993 11.0103 26.5312 10.9959 26.4561 10.9888C26.3809 10.978 26.3021 10.9727 26.2197 10.9727H25.7739V10.457C25.8205 10.4463 25.8903 10.4355 25.9834 10.4248C26.0765 10.4105 26.1839 10.3979 26.3057 10.3872C26.431 10.3765 26.5653 10.3675 26.7085 10.3604C26.8553 10.3532 27.0039 10.3496 27.1543 10.3496C27.2904 10.3496 27.4211 10.3586 27.5464 10.3765C27.6753 10.3908 27.7809 10.4176 27.8633 10.457V14.5552ZM30.5811 9.46338C30.5882 9.38818 30.6043 9.30762 30.6294 9.22168C30.658 9.13216 30.6867 9.0516 30.7153 8.97998L30.812 8.72217H31.521V10.457H33.2505V10.7363C33.2505 10.8187 33.2433 10.8849 33.229 10.9351C33.2147 10.9816 33.1914 11.0174 33.1592 11.0425C33.1305 11.0675 33.0911 11.0837 33.041 11.0908C32.9945 11.098 32.9372 11.1016 32.8691 11.1016H31.521V14.2866C31.521 14.5015 31.5389 14.6841 31.5747 14.8345C31.6141 14.9849 31.666 15.1066 31.7305 15.1997C31.7985 15.2928 31.8809 15.3608 31.9775 15.4038C32.0742 15.4432 32.1816 15.4629 32.2998 15.4629C32.3392 15.4629 32.384 15.4593 32.4341 15.4521C32.4878 15.4414 32.5379 15.4289 32.5845 15.4146C32.6382 15.4002 32.6919 15.3841 32.7456 15.3662C32.7599 15.248 32.7743 15.1299 32.7886 15.0117C32.8029 14.9079 32.8154 14.7969 32.8262 14.6787C32.8405 14.5605 32.8548 14.4478 32.8691 14.3403L33.5728 14.2866L33.6265 15.7422C33.4045 15.8532 33.1502 15.9338 32.8638 15.9839C32.5809 16.034 32.2819 16.0591 31.9668 16.0591C31.4404 16.0591 31.043 15.923 30.7744 15.6509C30.5094 15.3752 30.377 14.9562 30.377 14.394V11.1016H29.2866V10.8115C29.2866 10.7184 29.3063 10.6576 29.3457 10.6289C29.3887 10.6003 29.4531 10.5806 29.5391 10.5698L30.436 10.457L30.5811 9.46338ZM40.8882 15.9355C40.7163 15.9821 40.5033 16.0161 40.249 16.0376C39.9984 16.0591 39.7388 16.0698 39.4702 16.0698C39.3914 16.0698 39.3109 16.0627 39.2285 16.0483C39.1497 16.0376 39.0781 16.0161 39.0137 15.9839C38.9492 15.9481 38.8955 15.9015 38.8525 15.8442C38.8132 15.7834 38.7935 15.7046 38.7935 15.6079C38.7935 15.4325 38.7988 15.2588 38.8096 15.0869C38.8203 14.915 38.8257 14.7163 38.8257 14.4907V12.541C38.8257 12.1937 38.806 11.9144 38.7666 11.7031C38.7308 11.4883 38.6753 11.3236 38.6001 11.209C38.5249 11.0908 38.43 11.0138 38.3154 10.978C38.2008 10.9386 38.0666 10.9189 37.9126 10.9189C37.7085 10.9189 37.5098 10.953 37.3164 11.021C37.123 11.0854 36.9494 11.1714 36.7954 11.2788C36.645 11.3826 36.5197 11.4972 36.4194 11.6226C36.3228 11.7479 36.2673 11.8696 36.2529 11.9878V14.7861C36.2529 14.9329 36.2565 15.0547 36.2637 15.1514C36.2744 15.2445 36.2995 15.3232 36.3389 15.3877C36.3818 15.4486 36.4463 15.4969 36.5322 15.5327C36.6182 15.5649 36.7399 15.5936 36.8975 15.6187L36.9404 16.0698C36.6826 16.0483 36.4481 16.0304 36.2368 16.0161C36.0256 16.0054 35.8179 16 35.6138 16C35.4204 16 35.2253 16.0054 35.0283 16.0161C34.835 16.0269 34.6309 16.0448 34.416 16.0698L34.4375 15.6187C34.6022 15.5972 34.7293 15.5721 34.8188 15.5435C34.9084 15.5148 34.9746 15.4754 35.0176 15.4253C35.0605 15.3716 35.0856 15.3053 35.0928 15.2266C35.0999 15.1442 35.1035 15.0439 35.1035 14.9258V8.73291C35.1035 8.65055 35.0999 8.56999 35.0928 8.49121C35.0892 8.40885 35.0785 8.33187 35.0605 8.26025C34.9997 8.23877 34.9316 8.22087 34.8564 8.20654C34.7812 8.19222 34.6971 8.18506 34.604 8.18506H34.0776V7.71777C34.2531 7.6748 34.4894 7.639 34.7866 7.61035C35.0838 7.58171 35.4168 7.56738 35.7856 7.56738C35.9038 7.56738 35.9933 7.57454 36.0542 7.58887C36.1187 7.59961 36.1652 7.62288 36.1938 7.65869C36.2225 7.6945 36.2386 7.74642 36.2422 7.81445C36.2493 7.88249 36.2529 7.97021 36.2529 8.07764V11.0693C36.5143 10.8223 36.8258 10.6325 37.1875 10.5C37.5492 10.3675 37.9251 10.3013 38.3154 10.3013C38.8955 10.3013 39.3162 10.4409 39.5776 10.7202C39.8426 10.9959 39.9751 11.422 39.9751 11.9985V14.5552C39.9751 14.7593 39.984 14.9347 40.002 15.0815C40.0199 15.2248 40.0413 15.3501 40.0664 15.4575H40.8882V15.9355ZM50.5669 10.2637C50.5669 9.95931 50.5508 9.69613 50.5186 9.47412C50.4863 9.24854 50.4416 9.07487 50.3843 8.95312H48.4077V14.6089C48.4077 14.7593 48.4131 14.8882 48.4238 14.9956C48.4382 15.0994 48.4596 15.1925 48.4883 15.2749C48.5671 15.2964 48.6512 15.3107 48.7407 15.3179C48.8338 15.3215 48.9341 15.3232 49.0415 15.3232H49.5249V16.0752C49.2456 16.0394 48.9824 16.0179 48.7354 16.0107C48.4883 16.0036 48.2466 16 48.0103 16C47.6808 16 47.3639 16.0036 47.0596 16.0107C46.7552 16.0179 46.4419 16.0394 46.1196 16.0752V15.3232H46.5977C46.7051 15.3232 46.8053 15.3215 46.8984 15.3179C46.9915 15.3143 47.0757 15.3 47.1509 15.2749C47.2046 15.1353 47.2314 14.9419 47.2314 14.6948V8.95312H45.2549C45.1976 9.07487 45.1528 9.24854 45.1206 9.47412C45.0884 9.69613 45.0723 9.95931 45.0723 10.2637H44.3311C44.3311 10.1419 44.3275 10.0023 44.3203 9.84473C44.3167 9.68359 44.3096 9.51888 44.2988 9.35059C44.2917 9.17871 44.2845 9.00863 44.2773 8.84033C44.2738 8.66846 44.272 8.50911 44.272 8.3623C44.3507 8.32292 44.5011 8.29964 44.7231 8.29248C44.9487 8.28532 45.2209 8.28174 45.5396 8.28174C45.5789 8.28174 45.6559 8.28353 45.7705 8.28711C45.8887 8.28711 46.0247 8.2889 46.1787 8.29248C46.3363 8.29606 46.5046 8.29964 46.6836 8.30322C46.8626 8.30322 47.0309 8.30501 47.1885 8.30859C47.3496 8.31217 47.491 8.31576 47.6128 8.31934C47.7381 8.31934 47.8258 8.31934 47.876 8.31934C47.9691 8.31934 48.0854 8.31934 48.2251 8.31934C48.3647 8.31576 48.5116 8.31217 48.6655 8.30859C48.8195 8.30501 48.9735 8.30322 49.1274 8.30322C49.285 8.29964 49.4264 8.29606 49.5518 8.29248C49.6807 8.2889 49.7863 8.28711 49.8687 8.28711C49.951 8.28353 49.9976 8.28174 50.0083 8.28174C50.3341 8.28174 50.6099 8.28711 50.8354 8.29785C51.061 8.30501 51.2132 8.3265 51.292 8.3623C51.292 8.50911 51.2884 8.66846 51.2812 8.84033C51.2777 9.00863 51.2723 9.17871 51.2651 9.35059C51.258 9.51888 51.2508 9.68359 51.2437 9.84473C51.2401 10.0023 51.2383 10.1419 51.2383 10.2637H50.5669ZM58.5269 15.9355C58.355 15.9821 58.1419 16.0161 57.8877 16.0376C57.637 16.0591 57.3774 16.0698 57.1089 16.0698C57.0301 16.0698 56.9495 16.0627 56.8672 16.0483C56.7884 16.0376 56.7168 16.0161 56.6523 15.9839C56.5879 15.9481 56.5342 15.9015 56.4912 15.8442C56.4518 15.7834 56.4321 15.7046 56.4321 15.6079C56.4321 15.4325 56.4375 15.2588 56.4482 15.0869C56.459 14.915 56.4644 14.7163 56.4644 14.4907V12.541C56.4644 12.1937 56.4447 11.9144 56.4053 11.7031C56.3695 11.4883 56.314 11.3236 56.2388 11.209C56.1636 11.0908 56.0687 11.0138 55.9541 10.978C55.8395 10.9386 55.7052 10.9189 55.5513 10.9189C55.3472 10.9189 55.1484 10.953 54.9551 11.021C54.7617 11.0854 54.5881 11.1714 54.4341 11.2788C54.2837 11.3826 54.1584 11.4972 54.0581 11.6226C53.9614 11.7479 53.9059 11.8696 53.8916 11.9878V14.7861C53.8916 14.9329 53.8952 15.0547 53.9023 15.1514C53.9131 15.2445 53.9382 15.3232 53.9775 15.3877C54.0205 15.4486 54.085 15.4969 54.1709 15.5327C54.2568 15.5649 54.3786 15.5936 54.5361 15.6187L54.5791 16.0698C54.3213 16.0483 54.0868 16.0304 53.8755 16.0161C53.6642 16.0054 53.4565 16 53.2524 16C53.0591 16 52.8639 16.0054 52.667 16.0161C52.4736 16.0269 52.2695 16.0448 52.0547 16.0698L52.0762 15.6187C52.2409 15.5972 52.368 15.5721 52.4575 15.5435C52.547 15.5148 52.6133 15.4754 52.6562 15.4253C52.6992 15.3716 52.7243 15.3053 52.7314 15.2266C52.7386 15.1442 52.7422 15.0439 52.7422 14.9258V8.73291C52.7422 8.65055 52.7386 8.56999 52.7314 8.49121C52.7279 8.40885 52.7171 8.33187 52.6992 8.26025C52.6383 8.23877 52.5703 8.22087 52.4951 8.20654C52.4199 8.19222 52.3358 8.18506 52.2427 8.18506H51.7163V7.71777C51.8918 7.6748 52.1281 7.639 52.4253 7.61035C52.7225 7.58171 53.0555 7.56738 53.4243 7.56738C53.5425 7.56738 53.632 7.57454 53.6929 7.58887C53.7573 7.59961 53.8039 7.62288 53.8325 7.65869C53.8612 7.6945 53.8773 7.74642 53.8809 7.81445C53.888 7.88249 53.8916 7.97021 53.8916 8.07764V11.0693C54.153 10.8223 54.4645 10.6325 54.8262 10.5C55.1878 10.3675 55.5638 10.3013 55.9541 10.3013C56.5342 10.3013 56.9549 10.4409 57.2163 10.7202C57.4813 10.9959 57.6138 11.422 57.6138 11.9985V14.5552C57.6138 14.7593 57.6227 14.9347 57.6406 15.0815C57.6585 15.2248 57.68 15.3501 57.7051 15.4575H58.5269V15.9355ZM61.3198 11.7515C61.4523 11.5402 61.583 11.3451 61.7119 11.166C61.8408 10.987 61.9787 10.833 62.1255 10.7041C62.2759 10.5752 62.4406 10.4749 62.6196 10.4033C62.7987 10.3317 63.0046 10.2959 63.2373 10.2959C63.4593 10.2959 63.6276 10.3138 63.7422 10.3496C63.8568 10.3854 63.9445 10.4212 64.0054 10.457L63.8711 11.9395H63.3877L63.2588 11.1553C63.1621 11.1445 63.0869 11.1356 63.0332 11.1284C62.9795 11.1213 62.9329 11.1177 62.8936 11.1177C62.7253 11.1177 62.5498 11.1696 62.3672 11.2734C62.1882 11.3737 62.0234 11.5098 61.873 11.6816C61.7227 11.8499 61.5991 12.0451 61.5024 12.2671C61.4058 12.4855 61.3574 12.7129 61.3574 12.9492V14.7593C61.3574 14.9097 61.361 15.035 61.3682 15.1353C61.3753 15.2319 61.3986 15.3125 61.438 15.377C61.481 15.4414 61.5454 15.4915 61.6313 15.5273C61.7209 15.5632 61.8462 15.5936 62.0073 15.6187L62.0557 16.0698C61.7979 16.0483 61.5633 16.0304 61.3521 16.0161C61.1408 16.0054 60.9331 16 60.729 16C60.5356 16 60.3405 16.0054 60.1436 16.0161C59.9502 16.0269 59.7443 16.0448 59.5259 16.0698L59.5474 15.6187C59.7157 15.5972 59.8446 15.5721 59.9341 15.5435C60.0272 15.5148 60.0934 15.4736 60.1328 15.4199C60.1758 15.3662 60.2008 15.2982 60.208 15.2158C60.2152 15.1335 60.2188 15.0278 60.2188 14.8989V11.4238C60.2188 11.3594 60.2152 11.2967 60.208 11.2358C60.2044 11.1714 60.1937 11.1105 60.1758 11.0532C60.1257 11.0282 60.0719 11.0085 60.0146 10.9941C59.9574 10.9798 59.8875 10.9727 59.8052 10.9727H59.1982V10.457C59.2412 10.4463 59.3057 10.4355 59.3916 10.4248C59.4775 10.4105 59.576 10.3979 59.687 10.3872C59.8016 10.3765 59.9233 10.3675 60.0522 10.3604C60.1847 10.3532 60.319 10.3496 60.4551 10.3496C60.627 10.3496 60.7881 10.3586 60.9385 10.3765C61.0924 10.3908 61.2196 10.4176 61.3198 10.457V11.7515ZM68.7427 12.7559C68.7498 12.7415 68.7534 12.7272 68.7534 12.7129C68.7534 12.6986 68.7534 12.6825 68.7534 12.6646C68.7534 12.4282 68.7284 12.2044 68.6782 11.9932C68.6317 11.7783 68.5565 11.5903 68.4526 11.4292C68.3488 11.2645 68.2127 11.1356 68.0444 11.0425C67.8797 10.9458 67.6774 10.8975 67.4375 10.8975C66.9613 10.8975 66.5996 11.055 66.3525 11.3701C66.109 11.6852 65.9712 12.1471 65.939 12.7559H68.7427ZM69.79 15.103C69.5859 15.4611 69.3049 15.7225 68.9468 15.8872C68.5887 16.0483 68.1536 16.1289 67.6416 16.1289C67.2083 16.1289 66.8145 16.0645 66.46 15.9355C66.109 15.8066 65.8083 15.6187 65.5576 15.3716C65.3105 15.1209 65.119 14.8148 64.9829 14.4531C64.8468 14.0915 64.7788 13.6779 64.7788 13.2124C64.7788 12.7612 64.8451 12.3566 64.9775 11.9985C65.11 11.6369 65.2998 11.3307 65.5469 11.0801C65.7939 10.8294 66.0911 10.6379 66.4385 10.5054C66.7894 10.3693 67.1833 10.3013 67.6201 10.3013C67.9424 10.3013 68.2432 10.3514 68.5225 10.4517C68.8018 10.5483 69.0435 10.6898 69.2476 10.876C69.4552 11.0586 69.6164 11.2842 69.731 11.5527C69.8491 11.8213 69.9082 12.1239 69.9082 12.4604C69.9082 12.6646 69.8903 12.8275 69.8545 12.9492C69.8223 13.071 69.7721 13.1641 69.7041 13.2285C69.6396 13.293 69.5555 13.3359 69.4517 13.3574C69.3514 13.3753 69.2314 13.3843 69.0918 13.3843H65.9443C65.9837 14.0754 66.1663 14.5946 66.4922 14.9419C66.8216 15.2856 67.2638 15.4575 67.8188 15.4575C68.1089 15.4575 68.3792 15.4128 68.6299 15.3232C68.8805 15.2337 69.1133 15.0923 69.3281 14.8989L69.79 15.103ZM74.5166 14.8989C74.5381 14.7056 74.5578 14.4871 74.5757 14.2437C74.5936 13.9966 74.6025 13.7065 74.6025 13.3735H73.7539C73.2419 13.3735 72.8498 13.4684 72.5776 13.6582C72.3055 13.848 72.1694 14.1273 72.1694 14.4961C72.1694 14.8184 72.259 15.0601 72.438 15.2212C72.617 15.3787 72.8569 15.4575 73.1577 15.4575C73.3833 15.4575 73.6125 15.4056 73.8452 15.3018C74.078 15.1943 74.3018 15.0601 74.5166 14.8989ZM76.6919 15.8979C76.5093 15.9624 76.3034 16.0072 76.0742 16.0322C75.8451 16.0573 75.5908 16.0698 75.3115 16.0698C75.1647 16.0698 75.0394 16.0662 74.9355 16.0591C74.8353 16.0519 74.7529 16.0304 74.6885 15.9946C74.6276 15.9552 74.5828 15.8962 74.5542 15.8174C74.5256 15.7386 74.5112 15.6294 74.5112 15.4897L74.5005 15.3823C74.3931 15.479 74.2785 15.5721 74.1567 15.6616C74.035 15.7511 73.9025 15.8317 73.7593 15.9033C73.616 15.9714 73.4621 16.0251 73.2974 16.0645C73.1326 16.1074 72.9536 16.1289 72.7603 16.1289C72.506 16.1289 72.2715 16.0949 72.0566 16.0269C71.8418 15.9624 71.6574 15.8639 71.5034 15.7314C71.3494 15.599 71.2295 15.4342 71.1436 15.2373C71.0576 15.0404 71.0146 14.8094 71.0146 14.5444C71.0146 13.95 71.2456 13.5042 71.7075 13.207C72.1694 12.9098 72.8713 12.7612 73.813 12.7612H74.6025V12.396C74.6025 12.1274 74.5846 11.8983 74.5488 11.7085C74.513 11.5151 74.4539 11.3576 74.3716 11.2358C74.2928 11.1105 74.1872 11.0192 74.0547 10.9619C73.9222 10.901 73.7611 10.8706 73.5713 10.8706C73.3564 10.8706 73.1631 10.901 72.9912 10.9619C72.8229 11.0228 72.6725 11.1034 72.54 11.2036C72.4076 11.3003 72.2894 11.4131 72.1855 11.542C72.0853 11.6709 71.994 11.8052 71.9116 11.9448L71.165 11.4722C71.1901 11.3254 71.2617 11.1821 71.3799 11.0425C71.498 10.9028 71.6574 10.7775 71.8579 10.6665C72.0584 10.5555 72.2965 10.4678 72.5723 10.4033C72.8516 10.3353 73.1631 10.3013 73.5068 10.3013C74.2731 10.3013 74.8371 10.4767 75.1987 10.8276C75.5604 11.175 75.7412 11.6781 75.7412 12.3369V14.5552C75.7412 14.7593 75.7502 14.9347 75.7681 15.0815C75.786 15.2248 75.8075 15.3501 75.8325 15.4575H76.6919V15.8979ZM82.02 14.147C82.02 13.66 82.0146 13.1999 82.0039 12.7666C81.9967 12.3333 81.9806 11.9108 81.9556 11.499C81.8732 11.4095 81.7747 11.3289 81.6602 11.2573C81.5456 11.1857 81.4256 11.1248 81.3003 11.0747C81.175 11.021 81.0461 10.9816 80.9136 10.9565C80.7847 10.9279 80.6611 10.9136 80.543 10.9136C80.2637 10.9136 80.0273 10.9691 79.834 11.0801C79.6406 11.1911 79.4813 11.3486 79.356 11.5527C79.2342 11.7568 79.1447 12.0021 79.0874 12.2886C79.0337 12.575 79.0068 12.8919 79.0068 13.2393C79.0068 13.9984 79.1322 14.5588 79.3828 14.9204C79.637 15.2785 80.0148 15.4575 80.5161 15.4575C80.6916 15.4575 80.8581 15.4289 81.0156 15.3716C81.1768 15.3107 81.3218 15.2248 81.4507 15.1138C81.5832 14.9992 81.6978 14.8613 81.7944 14.7002C81.8911 14.5355 81.9663 14.3511 82.02 14.147ZM83.1479 14.5552C83.1479 14.7593 83.1569 14.9347 83.1748 15.0815C83.1927 15.2248 83.2142 15.3501 83.2393 15.4575H84.1685V15.9194C83.9858 15.966 83.7782 16.0018 83.5454 16.0269C83.3162 16.0519 83.062 16.0645 82.7827 16.0645C82.6574 16.0645 82.5482 16.0609 82.4551 16.0537C82.362 16.0501 82.285 16.0322 82.2241 16C82.1632 15.9678 82.1167 15.9176 82.0845 15.8496C82.0558 15.778 82.0415 15.6777 82.0415 15.5488V15.291C81.9233 15.4414 81.7909 15.5703 81.644 15.6777C81.5008 15.7816 81.3486 15.8675 81.1875 15.9355C81.0264 16.0036 80.8581 16.0519 80.6826 16.0806C80.5107 16.1128 80.3371 16.1289 80.1616 16.1289C79.8322 16.1289 79.5225 16.0698 79.2324 15.9517C78.946 15.8335 78.6935 15.6562 78.4751 15.4199C78.2603 15.1836 78.0902 14.8882 77.9648 14.5337C77.8395 14.1792 77.7769 13.7674 77.7769 13.2983C77.7769 12.8149 77.8324 12.3853 77.9434 12.0093C78.0544 11.6297 78.2137 11.311 78.4214 11.0532C78.6326 10.7918 78.8887 10.5949 79.1895 10.4624C79.4938 10.3263 79.8376 10.2583 80.2207 10.2583C80.5895 10.2583 80.9189 10.3192 81.209 10.4409C81.5026 10.5591 81.7676 10.7363 82.0039 10.9727V8.72754C82.0039 8.54134 81.9914 8.38558 81.9663 8.26025C81.8983 8.23877 81.8267 8.22087 81.7515 8.20654C81.6799 8.19222 81.5957 8.18506 81.499 8.18506H80.978V7.71777C81.1606 7.6748 81.4095 7.64079 81.7246 7.61572C82.0397 7.58708 82.3978 7.57275 82.7988 7.57275C82.8597 7.57275 82.9152 7.57454 82.9653 7.57812C83.019 7.57812 83.0656 7.58171 83.105 7.58887C83.1229 7.64974 83.1336 7.71598 83.1372 7.7876C83.1444 7.85921 83.1479 7.9362 83.1479 8.01855V14.5552Z" fill="black"/>
<path d="M9.1125 17.0939H9.55625L10.4438 18.5877H10.4813L11.3688 17.0939H11.8125L10.6563 18.9752V20.2939H10.2688V18.9752L9.1125 17.0939ZM12.8992 20.3439C12.6826 20.3439 12.4924 20.2924 12.3289 20.1893C12.1664 20.0861 12.0393 19.9419 11.9477 19.7564C11.857 19.571 11.8117 19.3544 11.8117 19.1064C11.8117 18.8564 11.857 18.6382 11.9477 18.4518C12.0393 18.2653 12.1664 18.1205 12.3289 18.0174C12.4924 17.9143 12.6826 17.8627 12.8992 17.8627C13.1159 17.8627 13.3055 17.9143 13.468 18.0174C13.6315 18.1205 13.7586 18.2653 13.8492 18.4518C13.9409 18.6382 13.9867 18.8564 13.9867 19.1064C13.9867 19.3544 13.9409 19.571 13.8492 19.7564C13.7586 19.9419 13.6315 20.0861 13.468 20.1893C13.3055 20.2924 13.1159 20.3439 12.8992 20.3439ZM12.8992 20.0127C13.0638 20.0127 13.1992 19.9705 13.3055 19.8861C13.4117 19.8018 13.4904 19.6908 13.5414 19.5533C13.5924 19.4158 13.618 19.2669 13.618 19.1064C13.618 18.946 13.5924 18.7965 13.5414 18.658C13.4904 18.5195 13.4117 18.4075 13.3055 18.3221C13.1992 18.2367 13.0638 18.1939 12.8992 18.1939C12.7346 18.1939 12.5992 18.2367 12.493 18.3221C12.3867 18.4075 12.3081 18.5195 12.257 18.658C12.206 18.7965 12.1805 18.946 12.1805 19.1064C12.1805 19.2669 12.206 19.4158 12.257 19.5533C12.3081 19.6908 12.3867 19.8018 12.493 19.8861C12.5992 19.9705 12.7346 20.0127 12.8992 20.0127ZM16.0621 19.3127V17.8939H16.4309V20.2939H16.0621V19.8877H16.0371C15.9809 20.0096 15.8934 20.1132 15.7746 20.1986C15.6559 20.283 15.5059 20.3252 15.3246 20.3252C15.1746 20.3252 15.0413 20.2924 14.9246 20.2268C14.8079 20.1601 14.7163 20.0601 14.6496 19.9268C14.5829 19.7924 14.5496 19.6231 14.5496 19.4189V17.8939H14.9184V19.3939C14.9184 19.5689 14.9673 19.7085 15.0652 19.8127C15.1642 19.9169 15.2902 19.9689 15.4434 19.9689C15.535 19.9689 15.6283 19.9455 15.723 19.8986C15.8189 19.8518 15.8991 19.7799 15.9637 19.683C16.0293 19.5861 16.0621 19.4627 16.0621 19.3127ZM17.1063 20.2939V17.8939H17.4625V18.2564H17.4875C17.5313 18.1377 17.6104 18.0413 17.725 17.9674C17.8396 17.8934 17.9688 17.8564 18.1125 17.8564C18.1396 17.8564 18.1734 17.857 18.2141 17.858C18.2547 17.859 18.2854 17.8606 18.3063 17.8627V18.2377C18.2938 18.2346 18.2651 18.2299 18.2203 18.2236C18.1766 18.2163 18.1302 18.2127 18.0813 18.2127C17.9646 18.2127 17.8604 18.2372 17.7688 18.2861C17.6781 18.334 17.6063 18.4007 17.5531 18.4861C17.501 18.5705 17.475 18.6669 17.475 18.7752V20.2939H17.1063ZM21.7809 17.8939C21.7621 17.7356 21.6861 17.6127 21.5527 17.5252C21.4194 17.4377 21.2559 17.3939 21.0621 17.3939C20.9204 17.3939 20.7965 17.4169 20.6902 17.4627C20.585 17.5085 20.5027 17.5715 20.4434 17.6518C20.385 17.732 20.3559 17.8231 20.3559 17.9252C20.3559 18.0106 20.3762 18.084 20.4168 18.1455C20.4585 18.2059 20.5116 18.2564 20.5762 18.2971C20.6408 18.3367 20.7085 18.3695 20.7793 18.3955C20.8501 18.4205 20.9152 18.4408 20.9746 18.4564L21.2996 18.5439C21.3829 18.5658 21.4757 18.596 21.5777 18.6346C21.6809 18.6731 21.7793 18.7257 21.873 18.7924C21.9678 18.858 22.046 18.9424 22.1074 19.0455C22.1689 19.1486 22.1996 19.2752 22.1996 19.4252C22.1996 19.5981 22.1543 19.7544 22.0637 19.8939C21.9741 20.0335 21.8428 20.1445 21.6699 20.2268C21.498 20.309 21.2892 20.3502 21.0434 20.3502C20.8142 20.3502 20.6158 20.3132 20.448 20.2393C20.2814 20.1653 20.1501 20.0622 20.0543 19.9299C19.9595 19.7976 19.9059 19.6439 19.8934 19.4689H20.2934C20.3038 19.5898 20.3444 19.6898 20.4152 19.7689C20.4871 19.8471 20.5777 19.9054 20.6871 19.9439C20.7975 19.9814 20.9163 20.0002 21.0434 20.0002C21.1913 20.0002 21.3241 19.9762 21.4418 19.9283C21.5595 19.8794 21.6527 19.8117 21.7215 19.7252C21.7902 19.6377 21.8246 19.5356 21.8246 19.4189C21.8246 19.3127 21.7949 19.2262 21.7355 19.1596C21.6762 19.0929 21.598 19.0387 21.5012 18.9971C21.4043 18.9554 21.2996 18.9189 21.1871 18.8877L20.7934 18.7752C20.5434 18.7033 20.3454 18.6007 20.1996 18.4674C20.0538 18.334 19.9809 18.1596 19.9809 17.9439C19.9809 17.7648 20.0293 17.6085 20.1262 17.4752C20.2241 17.3408 20.3553 17.2367 20.5199 17.1627C20.6855 17.0877 20.8704 17.0502 21.0746 17.0502C21.2809 17.0502 21.4642 17.0872 21.6246 17.1611C21.785 17.234 21.9121 17.334 22.0059 17.4611C22.1007 17.5882 22.1507 17.7325 22.1559 17.8939H21.7809ZM23.7617 20.3439C23.5451 20.3439 23.3549 20.2924 23.1914 20.1893C23.0289 20.0861 22.9018 19.9419 22.8102 19.7564C22.7195 19.571 22.6742 19.3544 22.6742 19.1064C22.6742 18.8564 22.7195 18.6382 22.8102 18.4518C22.9018 18.2653 23.0289 18.1205 23.1914 18.0174C23.3549 17.9143 23.5451 17.8627 23.7617 17.8627C23.9784 17.8627 24.168 17.9143 24.3305 18.0174C24.494 18.1205 24.6211 18.2653 24.7117 18.4518C24.8034 18.6382 24.8492 18.8564 24.8492 19.1064C24.8492 19.3544 24.8034 19.571 24.7117 19.7564C24.6211 19.9419 24.494 20.0861 24.3305 20.1893C24.168 20.2924 23.9784 20.3439 23.7617 20.3439ZM23.7617 20.0127C23.9263 20.0127 24.0617 19.9705 24.168 19.8861C24.2742 19.8018 24.3529 19.6908 24.4039 19.5533C24.4549 19.4158 24.4805 19.2669 24.4805 19.1064C24.4805 18.946 24.4549 18.7965 24.4039 18.658C24.3529 18.5195 24.2742 18.4075 24.168 18.3221C24.0617 18.2367 23.9263 18.1939 23.7617 18.1939C23.5971 18.1939 23.4617 18.2367 23.3555 18.3221C23.2492 18.4075 23.1706 18.5195 23.1195 18.658C23.0685 18.7965 23.043 18.946 23.043 19.1064C23.043 19.2669 23.0685 19.4158 23.1195 19.5533C23.1706 19.6908 23.2492 19.8018 23.3555 19.8861C23.4617 19.9705 23.5971 20.0127 23.7617 20.0127ZM26.9246 19.3127V17.8939H27.2934V20.2939H26.9246V19.8877H26.8996C26.8434 20.0096 26.7559 20.1132 26.6371 20.1986C26.5184 20.283 26.3684 20.3252 26.1871 20.3252C26.0371 20.3252 25.9038 20.2924 25.7871 20.2268C25.6704 20.1601 25.5788 20.0601 25.5121 19.9268C25.4454 19.7924 25.4121 19.6231 25.4121 19.4189V17.8939H25.7809V19.3939C25.7809 19.5689 25.8298 19.7085 25.9277 19.8127C26.0267 19.9169 26.1527 19.9689 26.3059 19.9689C26.3975 19.9689 26.4908 19.9455 26.5855 19.8986C26.6814 19.8518 26.7616 19.7799 26.8262 19.683C26.8918 19.5861 26.9246 19.4627 26.9246 19.3127ZM27.9688 20.2939V17.8939H28.325V18.2564H28.35C28.3938 18.1377 28.4729 18.0413 28.5875 17.9674C28.7021 17.8934 28.8313 17.8564 28.975 17.8564C29.0021 17.8564 29.0359 17.857 29.0766 17.858C29.1172 17.859 29.1479 17.8606 29.1688 17.8627V18.2377C29.1563 18.2346 29.1276 18.2299 29.0828 18.2236C29.0391 18.2163 28.9927 18.2127 28.9438 18.2127C28.8271 18.2127 28.7229 18.2372 28.6313 18.2861C28.5406 18.334 28.4688 18.4007 28.4156 18.4861C28.3635 18.5705 28.3375 18.6669 28.3375 18.7752V20.2939H27.9688ZM30.5078 20.3439C30.2828 20.3439 30.0891 20.2908 29.9266 20.1846C29.7641 20.0783 29.6391 19.932 29.5516 19.7455C29.4641 19.559 29.4203 19.346 29.4203 19.1064C29.4203 18.8627 29.4651 18.6476 29.5547 18.4611C29.6453 18.2736 29.7714 18.1273 29.9328 18.0221C30.0953 17.9158 30.2849 17.8627 30.5016 17.8627C30.6703 17.8627 30.8224 17.8939 30.9578 17.9564C31.0932 18.0189 31.2042 18.1064 31.2906 18.2189C31.3771 18.3314 31.4307 18.4627 31.4516 18.6127H31.0828C31.0547 18.5033 30.9922 18.4064 30.8953 18.3221C30.7995 18.2367 30.6703 18.1939 30.5078 18.1939C30.3641 18.1939 30.238 18.2314 30.1297 18.3064C30.0224 18.3804 29.9385 18.4851 29.8781 18.6205C29.8188 18.7549 29.7891 18.9127 29.7891 19.0939C29.7891 19.2794 29.8182 19.4408 29.8766 19.5783C29.9359 19.7158 30.0193 19.8226 30.1266 19.8986C30.2349 19.9747 30.362 20.0127 30.5078 20.0127C30.6036 20.0127 30.6906 19.996 30.7688 19.9627C30.8469 19.9294 30.913 19.8814 30.9672 19.8189C31.0214 19.7564 31.0599 19.6814 31.0828 19.5939H31.4516C31.4307 19.7356 31.3792 19.8632 31.2969 19.9768C31.2156 20.0893 31.1078 20.1788 30.9734 20.2455C30.8401 20.3111 30.6849 20.3439 30.5078 20.3439ZM32.9969 20.3439C32.7656 20.3439 32.5661 20.2929 32.3984 20.1908C32.2318 20.0877 32.1031 19.9439 32.0125 19.7596C31.9229 19.5742 31.8781 19.3585 31.8781 19.1127C31.8781 18.8669 31.9229 18.6502 32.0125 18.4627C32.1031 18.2742 32.2292 18.1273 32.3906 18.0221C32.5531 17.9158 32.7427 17.8627 32.9594 17.8627C33.0844 17.8627 33.2078 17.8835 33.3297 17.9252C33.4516 17.9669 33.5625 18.0346 33.6625 18.1283C33.7625 18.221 33.8422 18.3439 33.9016 18.4971C33.9609 18.6502 33.9906 18.8387 33.9906 19.0627V19.2189H32.1406V18.9002H33.6156C33.6156 18.7648 33.5885 18.6439 33.5344 18.5377C33.4813 18.4314 33.4052 18.3476 33.3063 18.2861C33.2083 18.2247 33.0927 18.1939 32.9594 18.1939C32.8125 18.1939 32.6854 18.2304 32.5781 18.3033C32.4719 18.3752 32.3901 18.4689 32.3328 18.5846C32.2755 18.7002 32.2469 18.8242 32.2469 18.9564V19.1689C32.2469 19.3502 32.2781 19.5038 32.3406 19.6299C32.4042 19.7549 32.4922 19.8502 32.6047 19.9158C32.7172 19.9804 32.8479 20.0127 32.9969 20.0127C33.0938 20.0127 33.1813 19.9992 33.2594 19.9721C33.3385 19.9439 33.4068 19.9023 33.4641 19.8471C33.5214 19.7908 33.5656 19.721 33.5969 19.6377L33.9531 19.7377C33.9156 19.8585 33.8526 19.9648 33.7641 20.0564C33.6755 20.1471 33.5661 20.2179 33.4359 20.2689C33.3057 20.3189 33.1594 20.3439 32.9969 20.3439ZM36.8578 17.8939V18.2064H35.5641V17.8939H36.8578ZM35.9516 20.2939V17.5627C35.9516 17.4252 35.9839 17.3106 36.0484 17.2189C36.113 17.1273 36.1969 17.0585 36.3 17.0127C36.4031 16.9669 36.512 16.9439 36.6266 16.9439C36.7172 16.9439 36.7911 16.9512 36.8484 16.9658C36.9057 16.9804 36.9484 16.9939 36.9766 17.0064L36.8703 17.3252C36.8516 17.3189 36.8255 17.3111 36.7922 17.3018C36.7599 17.2924 36.7172 17.2877 36.6641 17.2877C36.5422 17.2877 36.4542 17.3184 36.4 17.3799C36.3469 17.4413 36.3203 17.5314 36.3203 17.6502V20.2939H35.9516ZM38.2508 20.3439C38.0341 20.3439 37.844 20.2924 37.6805 20.1893C37.518 20.0861 37.3909 19.9419 37.2992 19.7564C37.2086 19.571 37.1633 19.3544 37.1633 19.1064C37.1633 18.8564 37.2086 18.6382 37.2992 18.4518C37.3909 18.2653 37.518 18.1205 37.6805 18.0174C37.844 17.9143 38.0341 17.8627 38.2508 17.8627C38.4674 17.8627 38.657 17.9143 38.8195 18.0174C38.9831 18.1205 39.1102 18.2653 39.2008 18.4518C39.2924 18.6382 39.3383 18.8564 39.3383 19.1064C39.3383 19.3544 39.2924 19.571 39.2008 19.7564C39.1102 19.9419 38.9831 20.0861 38.8195 20.1893C38.657 20.2924 38.4674 20.3439 38.2508 20.3439ZM38.2508 20.0127C38.4154 20.0127 38.5508 19.9705 38.657 19.8861C38.7633 19.8018 38.8419 19.6908 38.893 19.5533C38.944 19.4158 38.9695 19.2669 38.9695 19.1064C38.9695 18.946 38.944 18.7965 38.893 18.658C38.8419 18.5195 38.7633 18.4075 38.657 18.3221C38.5508 18.2367 38.4154 18.1939 38.2508 18.1939C38.0862 18.1939 37.9508 18.2367 37.8445 18.3221C37.7383 18.4075 37.6596 18.5195 37.6086 18.658C37.5576 18.7965 37.532 18.946 37.532 19.1064C37.532 19.2669 37.5576 19.4158 37.6086 19.5533C37.6596 19.6908 37.7383 19.8018 37.8445 19.8861C37.9508 19.9705 38.0862 20.0127 38.2508 20.0127ZM39.9012 20.2939V17.8939H40.2574V18.2564H40.2824C40.3262 18.1377 40.4053 18.0413 40.5199 17.9674C40.6345 17.8934 40.7637 17.8564 40.9074 17.8564C40.9345 17.8564 40.9684 17.857 41.009 17.858C41.0496 17.859 41.0803 17.8606 41.1012 17.8627V18.2377C41.0887 18.2346 41.06 18.2299 41.0152 18.2236C40.9715 18.2163 40.9251 18.2127 40.8762 18.2127C40.7595 18.2127 40.6553 18.2372 40.5637 18.2861C40.473 18.334 40.4012 18.4007 40.348 18.4861C40.296 18.5705 40.2699 18.6669 40.2699 18.7752V20.2939H39.9012ZM45.4008 18.0939H45.0133C44.9904 17.9825 44.9503 17.8846 44.893 17.8002C44.8367 17.7158 44.768 17.645 44.6867 17.5877C44.6065 17.5294 44.5174 17.4856 44.4195 17.4564C44.3216 17.4273 44.2195 17.4127 44.1133 17.4127C43.9195 17.4127 43.744 17.4617 43.5867 17.5596C43.4305 17.6575 43.306 17.8018 43.2133 17.9924C43.1216 18.183 43.0758 18.4169 43.0758 18.6939C43.0758 18.971 43.1216 19.2049 43.2133 19.3955C43.306 19.5861 43.4305 19.7304 43.5867 19.8283C43.744 19.9262 43.9195 19.9752 44.1133 19.9752C44.2195 19.9752 44.3216 19.9606 44.4195 19.9314C44.5174 19.9023 44.6065 19.859 44.6867 19.8018C44.768 19.7434 44.8367 19.6721 44.893 19.5877C44.9503 19.5023 44.9904 19.4044 45.0133 19.2939H45.4008C45.3716 19.4575 45.3185 19.6038 45.2414 19.733C45.1643 19.8622 45.0685 19.9721 44.9539 20.0627C44.8393 20.1523 44.7107 20.2205 44.568 20.2674C44.4263 20.3143 44.2747 20.3377 44.1133 20.3377C43.8404 20.3377 43.5977 20.271 43.3852 20.1377C43.1727 20.0044 43.0055 19.8148 42.8836 19.5689C42.7617 19.3231 42.7008 19.0314 42.7008 18.6939C42.7008 18.3564 42.7617 18.0648 42.8836 17.8189C43.0055 17.5731 43.1727 17.3835 43.3852 17.2502C43.5977 17.1169 43.8404 17.0502 44.1133 17.0502C44.2747 17.0502 44.4263 17.0736 44.568 17.1205C44.7107 17.1674 44.8393 17.2361 44.9539 17.3268C45.0685 17.4163 45.1643 17.5257 45.2414 17.6549C45.3185 17.783 45.3716 17.9294 45.4008 18.0939ZM46.3457 18.8502V20.2939H45.977V17.0939H46.3457V18.2689H46.377C46.4332 18.145 46.5176 18.0465 46.6301 17.9736C46.7436 17.8997 46.8947 17.8627 47.0832 17.8627C47.2467 17.8627 47.39 17.8955 47.5129 17.9611C47.6358 18.0257 47.7311 18.1252 47.7988 18.2596C47.8676 18.3929 47.902 18.5627 47.902 18.7689V20.2939H47.5332V18.7939C47.5332 18.6033 47.4837 18.4559 47.3848 18.3518C47.2868 18.2465 47.1509 18.1939 46.977 18.1939C46.8561 18.1939 46.7478 18.2195 46.652 18.2705C46.5572 18.3215 46.4822 18.396 46.427 18.4939C46.3728 18.5919 46.3457 18.7106 46.3457 18.8502ZM48.5766 20.2939V17.8939H48.9328V18.2564H48.9578C49.0016 18.1377 49.0807 18.0413 49.1953 17.9674C49.3099 17.8934 49.4391 17.8564 49.5828 17.8564C49.6099 17.8564 49.6438 17.857 49.6844 17.858C49.725 17.859 49.7557 17.8606 49.7766 17.8627V18.2377C49.7641 18.2346 49.7354 18.2299 49.6906 18.2236C49.6469 18.2163 49.6005 18.2127 49.5516 18.2127C49.4349 18.2127 49.3307 18.2372 49.2391 18.2861C49.1484 18.334 49.0766 18.4007 49.0234 18.4861C48.9714 18.5705 48.9453 18.6669 48.9453 18.7752V20.2939H48.5766ZM50.2137 20.2939V17.8939H50.5824V20.2939H50.2137ZM50.4012 17.4939C50.3293 17.4939 50.2673 17.4695 50.2152 17.4205C50.1642 17.3715 50.1387 17.3127 50.1387 17.2439C50.1387 17.1752 50.1642 17.1163 50.2152 17.0674C50.2673 17.0184 50.3293 16.9939 50.4012 16.9939C50.473 16.9939 50.5345 17.0184 50.5855 17.0674C50.6376 17.1163 50.6637 17.1752 50.6637 17.2439C50.6637 17.3127 50.6376 17.3715 50.5855 17.4205C50.5345 17.4695 50.473 17.4939 50.4012 17.4939ZM52.9578 18.4314L52.6266 18.5252C52.6057 18.47 52.575 18.4163 52.5344 18.3643C52.4948 18.3111 52.4406 18.2674 52.3719 18.233C52.3031 18.1986 52.2151 18.1814 52.1078 18.1814C51.9609 18.1814 51.8385 18.2153 51.7406 18.283C51.6438 18.3497 51.5953 18.4346 51.5953 18.5377C51.5953 18.6294 51.6286 18.7018 51.6953 18.7549C51.762 18.808 51.8661 18.8523 52.0078 18.8877L52.3641 18.9752C52.5786 19.0273 52.7385 19.107 52.8438 19.2143C52.949 19.3205 53.0016 19.4575 53.0016 19.6252C53.0016 19.7627 52.962 19.8856 52.8828 19.9939C52.8047 20.1023 52.6953 20.1877 52.5547 20.2502C52.4141 20.3127 52.2505 20.3439 52.0641 20.3439C51.8193 20.3439 51.6167 20.2908 51.4563 20.1846C51.2958 20.0783 51.1943 19.9231 51.1516 19.7189L51.5016 19.6314C51.5349 19.7606 51.5979 19.8575 51.6906 19.9221C51.7844 19.9867 51.9068 20.0189 52.0578 20.0189C52.2297 20.0189 52.3661 19.9825 52.4672 19.9096C52.5693 19.8356 52.6203 19.7471 52.6203 19.6439C52.6203 19.5606 52.5911 19.4908 52.5328 19.4346C52.4745 19.3773 52.3849 19.3346 52.2641 19.3064L51.8641 19.2127C51.6443 19.1606 51.4828 19.0799 51.3797 18.9705C51.2776 18.8601 51.2266 18.7221 51.2266 18.5564C51.2266 18.421 51.2646 18.3012 51.3406 18.1971C51.4177 18.0929 51.5224 18.0111 51.6547 17.9518C51.788 17.8924 51.9391 17.8627 52.1078 17.8627C52.3453 17.8627 52.5318 17.9148 52.6672 18.0189C52.8036 18.1231 52.9005 18.2606 52.9578 18.4314ZM54.6004 17.8939V18.2064H53.3566V17.8939H54.6004ZM53.7191 17.3189H54.0879V19.6064C54.0879 19.7106 54.103 19.7887 54.1332 19.8408C54.1645 19.8919 54.204 19.9262 54.252 19.9439C54.3009 19.9606 54.3525 19.9689 54.4066 19.9689C54.4473 19.9689 54.4806 19.9669 54.5066 19.9627C54.5327 19.9575 54.5535 19.9533 54.5691 19.9502L54.6441 20.2814C54.6191 20.2908 54.5842 20.3002 54.5395 20.3096C54.4947 20.32 54.4379 20.3252 54.3691 20.3252C54.265 20.3252 54.1629 20.3028 54.0629 20.258C53.9639 20.2132 53.8816 20.145 53.816 20.0533C53.7514 19.9617 53.7191 19.846 53.7191 19.7064V17.3189ZM55.1551 20.2939V17.8939H55.5238V20.2939H55.1551ZM55.3426 17.4939C55.2707 17.4939 55.2087 17.4695 55.1566 17.4205C55.1056 17.3715 55.0801 17.3127 55.0801 17.2439C55.0801 17.1752 55.1056 17.1163 55.1566 17.0674C55.2087 17.0184 55.2707 16.9939 55.3426 16.9939C55.4145 16.9939 55.4759 17.0184 55.527 17.0674C55.579 17.1163 55.6051 17.1752 55.6051 17.2439C55.6051 17.3127 55.579 17.3715 55.527 17.4205C55.4759 17.4695 55.4145 17.4939 55.3426 17.4939ZM56.9055 20.3502C56.7534 20.3502 56.6154 20.3215 56.4914 20.2643C56.3675 20.2059 56.269 20.1221 56.1961 20.0127C56.1232 19.9023 56.0867 19.7689 56.0867 19.6127C56.0867 19.4752 56.1138 19.3637 56.168 19.2783C56.2221 19.1919 56.2945 19.1242 56.3852 19.0752C56.4758 19.0262 56.5758 18.9898 56.6852 18.9658C56.7956 18.9408 56.9065 18.921 57.018 18.9064C57.1638 18.8877 57.282 18.8736 57.3727 18.8643C57.4643 18.8538 57.531 18.8367 57.5727 18.8127C57.6154 18.7887 57.6367 18.7471 57.6367 18.6877V18.6752C57.6367 18.521 57.5945 18.4012 57.5102 18.3158C57.4268 18.2304 57.3003 18.1877 57.1305 18.1877C56.9544 18.1877 56.8164 18.2262 56.7164 18.3033C56.6164 18.3804 56.5461 18.4627 56.5055 18.5502L56.1555 18.4252C56.218 18.2794 56.3013 18.1658 56.4055 18.0846C56.5107 18.0023 56.6253 17.945 56.7492 17.9127C56.8742 17.8794 56.9971 17.8627 57.118 17.8627C57.1951 17.8627 57.2836 17.8721 57.3836 17.8908C57.4846 17.9085 57.582 17.9455 57.6758 18.0018C57.7706 18.058 57.8492 18.1429 57.9117 18.2564C57.9742 18.37 58.0055 18.5221 58.0055 18.7127V20.2939H57.6367V19.9689H57.618C57.593 20.021 57.5513 20.0768 57.493 20.1361C57.4346 20.1955 57.357 20.246 57.2602 20.2877C57.1633 20.3294 57.0451 20.3502 56.9055 20.3502ZM56.9617 20.0189C57.1076 20.0189 57.2305 19.9903 57.3305 19.933C57.4315 19.8757 57.5076 19.8018 57.5586 19.7111C57.6107 19.6205 57.6367 19.5252 57.6367 19.4252V19.0877C57.6211 19.1064 57.5867 19.1236 57.5336 19.1393C57.4815 19.1538 57.4211 19.1669 57.3523 19.1783C57.2846 19.1887 57.2185 19.1981 57.1539 19.2064C57.0904 19.2137 57.0388 19.22 56.9992 19.2252C56.9034 19.2377 56.8138 19.258 56.7305 19.2861C56.6482 19.3132 56.5815 19.3544 56.5305 19.4096C56.4805 19.4637 56.4555 19.5377 56.4555 19.6314C56.4555 19.7596 56.5029 19.8564 56.5977 19.9221C56.6935 19.9867 56.8148 20.0189 56.9617 20.0189ZM59.0473 18.8502V20.2939H58.6785V17.8939H59.0348V18.2689H59.066C59.1223 18.1471 59.2077 18.0492 59.3223 17.9752C59.4369 17.9002 59.5848 17.8627 59.766 17.8627C59.9285 17.8627 60.0707 17.896 60.1926 17.9627C60.3145 18.0283 60.4092 18.1283 60.477 18.2627C60.5447 18.396 60.5785 18.5648 60.5785 18.7689V20.2939H60.2098V18.7939C60.2098 18.6054 60.1608 18.4585 60.0629 18.3533C59.965 18.2471 59.8306 18.1939 59.6598 18.1939C59.5421 18.1939 59.4369 18.2195 59.3441 18.2705C59.2525 18.3215 59.1801 18.396 59.127 18.4939C59.0738 18.5919 59.0473 18.7106 59.0473 18.8502ZM62.5398 20.2939V17.0939H62.9273V18.6814H62.9648L64.4023 17.0939H64.9086L63.5648 18.5377L64.9086 20.2939H64.4398L63.3273 18.8064L62.9273 19.2564V20.2939H62.5398ZM65.7289 18.8502V20.2939H65.3602V17.8939H65.7164V18.2689H65.7477C65.8039 18.1471 65.8893 18.0492 66.0039 17.9752C66.1185 17.9002 66.2664 17.8627 66.4477 17.8627C66.6102 17.8627 66.7523 17.896 66.8742 17.9627C66.9961 18.0283 67.0909 18.1283 67.1586 18.2627C67.2263 18.396 67.2602 18.5648 67.2602 18.7689V20.2939H66.8914V18.7939C66.8914 18.6054 66.8425 18.4585 66.7445 18.3533C66.6466 18.2471 66.5122 18.1939 66.3414 18.1939C66.2237 18.1939 66.1185 18.2195 66.0258 18.2705C65.9341 18.3215 65.8617 18.396 65.8086 18.4939C65.7555 18.5919 65.7289 18.7106 65.7289 18.8502ZM68.909 20.3439C68.6923 20.3439 68.5022 20.2924 68.3387 20.1893C68.1762 20.0861 68.0491 19.9419 67.9574 19.7564C67.8668 19.571 67.8215 19.3544 67.8215 19.1064C67.8215 18.8564 67.8668 18.6382 67.9574 18.4518C68.0491 18.2653 68.1762 18.1205 68.3387 18.0174C68.5022 17.9143 68.6923 17.8627 68.909 17.8627C69.1257 17.8627 69.3152 17.9143 69.4777 18.0174C69.6413 18.1205 69.7684 18.2653 69.859 18.4518C69.9507 18.6382 69.9965 18.8564 69.9965 19.1064C69.9965 19.3544 69.9507 19.571 69.859 19.7564C69.7684 19.9419 69.6413 20.0861 69.4777 20.1893C69.3152 20.2924 69.1257 20.3439 68.909 20.3439ZM68.909 20.0127C69.0736 20.0127 69.209 19.9705 69.3152 19.8861C69.4215 19.8018 69.5001 19.6908 69.5512 19.5533C69.6022 19.4158 69.6277 19.2669 69.6277 19.1064C69.6277 18.946 69.6022 18.7965 69.5512 18.658C69.5001 18.5195 69.4215 18.4075 69.3152 18.3221C69.209 18.2367 69.0736 18.1939 68.909 18.1939C68.7444 18.1939 68.609 18.2367 68.5027 18.3221C68.3965 18.4075 68.3178 18.5195 68.2668 18.658C68.2158 18.7965 68.1902 18.946 68.1902 19.1064C68.1902 19.2669 68.2158 19.4158 68.2668 19.5533C68.3178 19.6908 68.3965 19.8018 68.5027 19.8861C68.609 19.9705 68.7444 20.0127 68.909 20.0127ZM71.0215 20.2939L70.2902 17.8939H70.6777L71.1965 19.7314H71.2215L71.734 17.8939H72.1277L72.634 19.7252H72.659L73.1777 17.8939H73.5652L72.834 20.2939H72.4715L71.9465 18.4502H71.909L71.384 20.2939H71.0215ZM74.4215 17.0939V20.2939H74.0527V17.0939H74.4215ZM76.1031 20.3439C75.8719 20.3439 75.6724 20.2929 75.5047 20.1908C75.338 20.0877 75.2094 19.9439 75.1188 19.7596C75.0292 19.5742 74.9844 19.3585 74.9844 19.1127C74.9844 18.8669 75.0292 18.6502 75.1188 18.4627C75.2094 18.2742 75.3354 18.1273 75.4969 18.0221C75.6594 17.9158 75.849 17.8627 76.0656 17.8627C76.1906 17.8627 76.3141 17.8835 76.4359 17.9252C76.5578 17.9669 76.6688 18.0346 76.7688 18.1283C76.8688 18.221 76.9484 18.3439 77.0078 18.4971C77.0672 18.6502 77.0969 18.8387 77.0969 19.0627V19.2189H75.2469V18.9002H76.7219C76.7219 18.7648 76.6948 18.6439 76.6406 18.5377C76.5875 18.4314 76.5115 18.3476 76.4125 18.2861C76.3146 18.2247 76.199 18.1939 76.0656 18.1939C75.9188 18.1939 75.7917 18.2304 75.6844 18.3033C75.5781 18.3752 75.4964 18.4689 75.4391 18.5846C75.3818 18.7002 75.3531 18.8242 75.3531 18.9564V19.1689C75.3531 19.3502 75.3844 19.5038 75.4469 19.6299C75.5104 19.7549 75.5984 19.8502 75.7109 19.9158C75.8234 19.9804 75.9542 20.0127 76.1031 20.0127C76.2 20.0127 76.2875 19.9992 76.3656 19.9721C76.4448 19.9439 76.513 19.9023 76.5703 19.8471C76.6276 19.7908 76.6719 19.721 76.7031 19.6377L77.0594 19.7377C77.0219 19.8585 76.9589 19.9648 76.8703 20.0564C76.7818 20.1471 76.6724 20.2179 76.5422 20.2689C76.412 20.3189 76.2656 20.3439 76.1031 20.3439ZM78.5641 20.3439C78.3641 20.3439 78.1875 20.2934 78.0344 20.1924C77.8813 20.0903 77.7615 19.9465 77.675 19.7611C77.5885 19.5747 77.5453 19.3544 77.5453 19.1002C77.5453 18.8481 77.5885 18.6294 77.675 18.4439C77.7615 18.2585 77.8818 18.1153 78.0359 18.0143C78.1901 17.9132 78.3682 17.8627 78.5703 17.8627C78.7266 17.8627 78.85 17.8887 78.9406 17.9408C79.0323 17.9919 79.1021 18.0502 79.15 18.1158C79.199 18.1804 79.237 18.2335 79.2641 18.2752H79.2953V17.0939H79.6641V20.2939H79.3078V19.9252H79.2641C79.237 19.9689 79.1984 20.0242 79.1484 20.0908C79.0984 20.1564 79.0271 20.2153 78.9344 20.2674C78.8417 20.3184 78.7182 20.3439 78.5641 20.3439ZM78.6141 20.0127C78.762 20.0127 78.887 19.9742 78.9891 19.8971C79.0911 19.8189 79.1688 19.7111 79.2219 19.5736C79.275 19.4351 79.3016 19.2752 79.3016 19.0939C79.3016 18.9148 79.2755 18.758 79.2234 18.6236C79.1714 18.4882 79.0943 18.383 78.9922 18.308C78.8901 18.232 78.7641 18.1939 78.6141 18.1939C78.4578 18.1939 78.3276 18.234 78.2234 18.3143C78.1203 18.3934 78.0427 18.5012 77.9906 18.6377C77.9396 18.7731 77.9141 18.9252 77.9141 19.0939C77.9141 19.2648 77.9401 19.42 77.9922 19.5596C78.0453 19.6981 78.1234 19.8085 78.2266 19.8908C78.3307 19.9721 78.4599 20.0127 78.6141 20.0127ZM81.3594 21.2439C81.1812 21.2439 81.0281 21.221 80.9 21.1752C80.7719 21.1304 80.6651 21.071 80.5797 20.9971C80.4953 20.9242 80.4281 20.846 80.3781 20.7627L80.6719 20.5564C80.7052 20.6002 80.7474 20.6502 80.7984 20.7064C80.8495 20.7637 80.9193 20.8132 81.0078 20.8549C81.0974 20.8976 81.2146 20.9189 81.3594 20.9189C81.5531 20.9189 81.713 20.8721 81.8391 20.7783C81.9651 20.6846 82.0281 20.5377 82.0281 20.3377V19.8502H81.9969C81.9698 19.8939 81.9312 19.9481 81.8812 20.0127C81.8323 20.0762 81.7615 20.133 81.6687 20.183C81.5771 20.232 81.4531 20.2564 81.2969 20.2564C81.1031 20.2564 80.9292 20.2106 80.775 20.1189C80.6219 20.0273 80.5005 19.8939 80.4109 19.7189C80.3224 19.5439 80.2781 19.3314 80.2781 19.0814C80.2781 18.8356 80.3214 18.6215 80.4078 18.4393C80.4943 18.2559 80.6146 18.1143 80.7687 18.0143C80.9229 17.9132 81.101 17.8627 81.3031 17.8627C81.4594 17.8627 81.5833 17.8887 81.675 17.9408C81.7677 17.9919 81.8385 18.0502 81.8875 18.1158C81.9375 18.1804 81.976 18.2335 82.0031 18.2752H82.0406V17.8939H82.3969V20.3627C82.3969 20.5689 82.35 20.7367 82.2562 20.8658C82.1635 20.996 82.0385 21.0913 81.8812 21.1518C81.725 21.2132 81.551 21.2439 81.3594 21.2439ZM81.3469 19.9252C81.4948 19.9252 81.6198 19.8913 81.7219 19.8236C81.824 19.7559 81.9016 19.6585 81.9547 19.5314C82.0078 19.4044 82.0344 19.2523 82.0344 19.0752C82.0344 18.9023 82.0083 18.7497 81.9562 18.6174C81.9042 18.4851 81.8271 18.3814 81.725 18.3064C81.6229 18.2314 81.4969 18.1939 81.3469 18.1939C81.1906 18.1939 81.0604 18.2335 80.9562 18.3127C80.8531 18.3919 80.7755 18.4981 80.7234 18.6314C80.6724 18.7648 80.6469 18.9127 80.6469 19.0752C80.6469 19.2419 80.6729 19.3893 80.725 19.5174C80.7781 19.6445 80.8562 19.7445 80.9594 19.8174C81.0635 19.8893 81.1927 19.9252 81.3469 19.9252ZM84.0781 20.3439C83.8469 20.3439 83.6474 20.2929 83.4797 20.1908C83.313 20.0877 83.1844 19.9439 83.0938 19.7596C83.0042 19.5742 82.9594 19.3585 82.9594 19.1127C82.9594 18.8669 83.0042 18.6502 83.0938 18.4627C83.1844 18.2742 83.3104 18.1273 83.4719 18.0221C83.6344 17.9158 83.824 17.8627 84.0406 17.8627C84.1656 17.8627 84.2891 17.8835 84.4109 17.9252C84.5328 17.9669 84.6438 18.0346 84.7438 18.1283C84.8438 18.221 84.9234 18.3439 84.9828 18.4971C85.0422 18.6502 85.0719 18.8387 85.0719 19.0627V19.2189H83.2219V18.9002H84.6969C84.6969 18.7648 84.6698 18.6439 84.6156 18.5377C84.5625 18.4314 84.4865 18.3476 84.3875 18.2861C84.2896 18.2247 84.174 18.1939 84.0406 18.1939C83.8938 18.1939 83.7667 18.2304 83.6594 18.3033C83.5531 18.3752 83.4714 18.4689 83.4141 18.5846C83.3568 18.7002 83.3281 18.8242 83.3281 18.9564V19.1689C83.3281 19.3502 83.3594 19.5038 83.4219 19.6299C83.4854 19.7549 83.5734 19.8502 83.6859 19.9158C83.7984 19.9804 83.9292 20.0127 84.0781 20.0127C84.175 20.0127 84.2625 19.9992 84.3406 19.9721C84.4198 19.9439 84.488 19.9023 84.5453 19.8471C84.6026 19.7908 84.6469 19.721 84.6781 19.6377L85.0344 19.7377C84.9969 19.8585 84.9339 19.9648 84.8453 20.0564C84.7568 20.1471 84.6474 20.2179 84.5172 20.2689C84.387 20.3189 84.2406 20.3439 84.0781 20.3439Z" fill="black"/>
<path d="M37.5 4.5V0.5H0.5V14V27.5H37.5V23.5" stroke="black"/>
</svg>
